<svg width="133" height="12" viewBox="0 0 133 12" fill="none" xmlns="http://www.w3.org/2000/svg">
<path d="M13.7439 0.320125C13.3813 0.341458 13.1199 0.384124 12.9599 0.448125C12.7999 0.512125 12.6879 0.634791 12.6239 0.816125C12.5706 0.997458 12.5439 1.29079 12.5439 1.69612V9.63212C12.5439 10.0375 12.5706 10.3308 12.6239 10.5121C12.6879 10.6935 12.7999 10.8161 12.9599 10.8801C13.1306 10.9441 13.3919 10.9868 13.7439 11.0081V11.3281C13.1573 11.2961 12.3199 11.2801 11.2319 11.2801C10.0906 11.2801 9.24794 11.2961 8.70394 11.3281V11.0081C9.08794 10.9868 9.36528 10.9441 9.53594 10.8801C9.71727 10.8161 9.83994 10.6935 9.90394 10.5121C9.96794 10.3308 9.99994 10.0375 9.99994 9.63212V1.26412L6.14394 11.3441H5.88794L1.56794 1.04012V8.70412C1.56794 9.33346 1.59994 9.79746 1.66394 10.0961C1.72794 10.3841 1.86661 10.5975 2.07994 10.7361C2.29327 10.8641 2.63994 10.9548 3.11994 11.0081V11.3281C2.70394 11.2961 2.12794 11.2801 1.39194 11.2801C0.805275 11.2801 0.341275 11.2961 -5.85914e-05 11.3281V11.0081C0.351941 10.9548 0.607941 10.8641 0.767941 10.7361C0.938608 10.6081 1.05061 10.4055 1.10394 10.1281C1.16794 9.85079 1.19994 9.44012 1.19994 8.89612V1.69612C1.19994 1.29079 1.16794 0.997458 1.10394 0.816125C1.05061 0.634791 0.938608 0.512125 0.767941 0.448125C0.607941 0.384124 0.351941 0.341458 -5.85914e-05 0.320125V0.000124931C0.341275 0.0321245 0.805275 0.0481243 1.39194 0.0481243C2.37327 0.0481243 3.21594 0.0321245 3.91994 0.000124931L7.15194 7.79212L10.0959 0.0481243H11.2319C12.3199 0.0481243 13.1573 0.0321245 13.7439 0.000124931V0.320125ZM23.4201 9.98412C23.7294 10.6455 24.0654 10.9868 24.4281 11.0081V11.3281C23.9161 11.2961 23.2174 11.2801 22.3321 11.2801C21.1907 11.2801 20.3481 11.2961 19.8041 11.3281V11.0081C20.1561 10.9868 20.4174 10.9335 20.5881 10.8481C20.7587 10.7521 20.8441 10.5975 20.8441 10.3841C20.8441 10.1921 20.7747 9.95212 20.6361 9.66412L19.8361 7.84012H16.4761L16.2841 8.27212C15.9854 8.97612 15.8361 9.52546 15.8361 9.92012C15.8361 10.2828 15.9534 10.5495 16.1881 10.7201C16.4227 10.8908 16.7694 10.9868 17.2281 11.0081V11.3281C16.6201 11.2961 16.0067 11.2801 15.3881 11.2801C14.8121 11.2801 14.3801 11.2961 14.0921 11.3281V11.0081C14.3481 10.9548 14.5827 10.7948 14.7961 10.5281C15.0201 10.2508 15.2547 9.84012 15.5001 9.29612L18.8761 1.56812C18.9614 1.57879 19.0841 1.58412 19.2441 1.58412C19.4147 1.58412 19.5374 1.57879 19.6121 1.56812L23.4201 9.98412ZM19.6921 7.52012L18.1561 4.01612L16.6201 7.52012H19.6921ZM35.1953 10.6561C34.9393 10.9548 34.6513 11.1788 34.3313 11.3281C34.0113 11.4775 33.6113 11.5521 33.1313 11.5521C32.5233 11.5521 32.054 11.4348 31.7233 11.2001C31.3927 10.9655 31.1793 10.6508 31.0833 10.2561L30.6193 8.36812C30.502 7.77079 30.3206 7.37612 30.0753 7.18412C29.8407 6.98146 29.4887 6.88012 29.0193 6.88012H28.4913V9.63212C28.4913 10.0375 28.518 10.3308 28.5713 10.5121C28.6353 10.6935 28.7473 10.8161 28.9073 10.8801C29.078 10.9441 29.3393 10.9868 29.6913 11.0081V11.3281C29.0833 11.2961 28.214 11.2801 27.0833 11.2801C26.0913 11.2801 25.3446 11.2961 24.8433 11.3281V11.0081C25.206 10.9868 25.4673 10.9441 25.6273 10.8801C25.7873 10.8161 25.894 10.6935 25.9473 10.5121C26.0113 10.3308 26.0433 10.0375 26.0433 9.63212V3.29612C26.0433 2.89079 26.0113 2.59746 25.9473 2.41612C25.894 2.23479 25.7873 2.11212 25.6273 2.04812C25.4673 1.98412 25.206 1.94146 24.8433 1.92013V1.60012C25.3446 1.63212 26.0593 1.64812 26.9873 1.64812L28.8113 1.63212C29.0246 1.62146 29.2647 1.61612 29.5313 1.61612C30.9607 1.61612 32.0273 1.83479 32.7313 2.27212C33.446 2.69879 33.8033 3.29612 33.8033 4.06412C33.8033 4.72546 33.5207 5.30679 32.9553 5.80812C32.39 6.30946 31.446 6.62946 30.1233 6.76812C30.2727 6.76812 30.4273 6.78412 30.5873 6.81612C31.3553 6.90146 31.958 7.07212 32.3953 7.32812C32.8433 7.58412 33.1367 7.98946 33.2753 8.54412L33.6113 9.96812C33.686 10.2668 33.7767 10.4801 33.8833 10.6081C33.99 10.7361 34.1233 10.8001 34.2833 10.8001C34.5073 10.8001 34.7367 10.6828 34.9713 10.4481L35.1953 10.6561ZM29.3233 1.92013C29.0887 1.92013 28.9127 1.95746 28.7953 2.03212C28.678 2.10679 28.598 2.24012 28.5553 2.43212C28.5127 2.62412 28.4913 2.91212 28.4913 3.29612V6.56012H29.1793C29.9686 6.56012 30.5073 6.35746 30.7953 5.95212C31.094 5.54679 31.2433 4.97612 31.2433 4.24012C31.2433 3.46146 31.094 2.88012 30.7953 2.49612C30.5073 2.11212 30.0166 1.92013 29.3233 1.92013ZM44.8603 1.60012C44.7857 2.41079 44.7483 3.13612 44.7483 3.77612C44.7483 4.37346 44.7643 4.84279 44.7963 5.18412H44.4283C44.279 4.37346 44.0977 3.73879 43.8843 3.28012C43.6816 2.82146 43.415 2.49079 43.0843 2.28813C42.7643 2.07479 42.3483 1.96812 41.8363 1.96812H41.3403V9.47212C41.3403 9.92012 41.383 10.2455 41.4683 10.4481C41.5537 10.6508 41.703 10.7895 41.9163 10.8641C42.1296 10.9388 42.4763 10.9868 42.9563 11.0081V11.3281C42.3803 11.2961 41.4203 11.2801 40.0763 11.2801C38.7216 11.2801 37.7883 11.2961 37.2763 11.3281V11.0081C37.7563 10.9868 38.103 10.9388 38.3163 10.8641C38.5296 10.7895 38.679 10.6508 38.7643 10.4481C38.8496 10.2455 38.8923 9.92012 38.8923 9.47212V1.96812H38.3963C37.8843 1.96812 37.463 2.07479 37.1323 2.28813C36.8123 2.49079 36.5456 2.82146 36.3323 3.28012C36.1296 3.73879 35.9536 4.37346 35.8043 5.18412H35.4363C35.4683 4.84279 35.4843 4.37346 35.4843 3.77612C35.4843 3.13612 35.447 2.41079 35.3723 1.60012C36.3003 1.63212 37.8683 1.64812 40.0763 1.64812C42.327 1.64812 43.9217 1.63212 44.8603 1.60012ZM50.7069 1.92013C50.3443 1.94146 50.0829 1.98412 49.9229 2.04812C49.7629 2.11212 49.6509 2.23479 49.5869 2.41612C49.5336 2.59746 49.5069 2.89079 49.5069 3.29612V9.63212C49.5069 10.0375 49.5336 10.3308 49.5869 10.5121C49.6509 10.6935 49.7629 10.8161 49.9229 10.8801C50.0829 10.9441 50.3443 10.9868 50.7069 11.0081V11.3281C50.1629 11.2961 49.3736 11.2801 48.3389 11.2801C47.2189 11.2801 46.3923 11.2961 45.8589 11.3281V11.0081C46.2216 10.9868 46.4829 10.9441 46.6429 10.8801C46.8029 10.8161 46.9096 10.6935 46.9629 10.5121C47.0269 10.3308 47.0589 10.0375 47.0589 9.63212V3.29612C47.0589 2.89079 47.0269 2.59746 46.9629 2.41612C46.9096 2.23479 46.7976 2.11212 46.6269 2.04812C46.4669 1.98412 46.2109 1.94146 45.8589 1.92013V1.60012C46.3816 1.63212 47.2083 1.64812 48.3389 1.64812C49.3736 1.64812 50.1629 1.63212 50.7069 1.60012V1.92013ZM61.8284 1.92013C61.4764 1.97346 61.2151 2.05346 61.0444 2.16012C60.8844 2.26679 60.7724 2.43746 60.7084 2.67212C60.6551 2.90679 60.6284 3.26412 60.6284 3.74412V11.3601L60.1964 11.3441L59.7804 11.3601L53.3804 3.40812V9.18412C53.3804 9.65346 53.4231 10.0108 53.5084 10.2561C53.5938 10.4908 53.7484 10.6615 53.9724 10.7681C54.1964 10.8748 54.5484 10.9548 55.0284 11.0081V11.3281C54.5484 11.2961 53.9404 11.2801 53.2044 11.2801C52.6178 11.2801 52.1538 11.2961 51.8124 11.3281V11.0081C52.1644 10.9548 52.4204 10.8748 52.5804 10.7681C52.7511 10.6615 52.8631 10.4908 52.9164 10.2561C52.9804 10.0215 53.0124 9.66412 53.0124 9.18412V3.29612C53.0124 2.89079 52.9804 2.59746 52.9164 2.41612C52.8631 2.23479 52.7511 2.11212 52.5804 2.04812C52.4204 1.98412 52.1644 1.94146 51.8124 1.92013V1.60012C52.1538 1.63212 52.6178 1.64812 53.2044 1.64812C53.9618 1.64812 54.6124 1.63212 55.1564 1.60012L60.2604 7.93612V3.74412C60.2604 3.27479 60.2178 2.92279 60.1324 2.68812C60.0471 2.44279 59.8871 2.26679 59.6524 2.16012C59.4284 2.05346 59.0818 1.97346 58.6124 1.92013V1.60012C59.0818 1.63212 59.6898 1.64812 60.4364 1.64812C61.0338 1.64812 61.4978 1.63212 61.8284 1.60012V1.92013ZM78.3057 0.320125C77.943 0.341458 77.6817 0.384124 77.5217 0.448125C77.3617 0.512125 77.2497 0.634791 77.1857 0.816125C77.1324 0.997458 77.1057 1.29079 77.1057 1.69612V9.63212C77.1057 10.0375 77.1324 10.3308 77.1857 10.5121C77.2497 10.6935 77.3617 10.8161 77.5217 10.8801C77.6817 10.9441 77.943 10.9868 78.3057 11.0081V11.3281C77.783 11.2961 76.9724 11.2801 75.8737 11.2801C74.7964 11.2801 73.959 11.2961 73.3617 11.3281V11.0081C73.7137 10.9868 73.9697 10.9441 74.1297 10.8801C74.3004 10.8161 74.4124 10.6935 74.4657 10.5121C74.5297 10.3308 74.5617 10.0375 74.5617 9.63212V5.79212H70.3217V9.63212C70.3217 10.0375 70.3484 10.3308 70.4017 10.5121C70.4657 10.6935 70.5777 10.8161 70.7377 10.8801C70.8977 10.9441 71.159 10.9868 71.5217 11.0081V11.3281C70.9457 11.2961 70.1404 11.2801 69.1057 11.2801C67.9644 11.2801 67.1217 11.2961 66.5777 11.3281V11.0081C66.9297 10.9868 67.1857 10.9441 67.3457 10.8801C67.5164 10.8161 67.6284 10.6935 67.6817 10.5121C67.7457 10.3308 67.7777 10.0375 67.7777 9.63212V1.69612C67.7777 1.29079 67.7457 0.997458 67.6817 0.816125C67.6284 0.634791 67.5164 0.512125 67.3457 0.448125C67.1857 0.384124 66.9297 0.341458 66.5777 0.320125V0.000124931C67.1217 0.0321245 67.9644 0.0481243 69.1057 0.0481243C70.1404 0.0481243 70.9457 0.0321245 71.5217 0.000124931V0.320125C71.159 0.341458 70.8977 0.384124 70.7377 0.448125C70.5777 0.512125 70.4657 0.634791 70.4017 0.816125C70.3484 0.997458 70.3217 1.29079 70.3217 1.69612V5.47212H74.5617V1.69612C74.5617 1.29079 74.5297 0.997458 74.4657 0.816125C74.4124 0.634791 74.3004 0.512125 74.1297 0.448125C73.9697 0.384124 73.7137 0.341458 73.3617 0.320125V0.000124931C73.959 0.0321245 74.7964 0.0481243 75.8737 0.0481243C76.9724 0.0481243 77.783 0.0321245 78.3057 0.000124931V0.320125ZM84.7387 1.37612C85.816 1.37612 86.76 1.57346 87.5707 1.96812C88.3814 2.35212 89.0107 2.92279 89.4587 3.68012C89.9067 4.42679 90.1307 5.32279 90.1307 6.36812C90.1307 7.39212 89.9014 8.29879 89.4427 9.08812C88.984 9.86679 88.344 10.4748 87.5227 10.9121C86.7014 11.3388 85.768 11.5521 84.7227 11.5521C83.6454 11.5521 82.7014 11.3601 81.8907 10.9761C81.08 10.5815 80.4507 10.0108 80.0027 9.26412C79.5547 8.50679 79.3307 7.60546 79.3307 6.56012C79.3307 5.53612 79.56 4.63479 80.0187 3.85612C80.4774 3.06679 81.1174 2.45879 81.9387 2.03212C82.76 1.59479 83.6934 1.37612 84.7387 1.37612ZM84.6747 1.66412C84.12 1.66412 83.6294 1.87212 83.2027 2.28813C82.7867 2.69346 82.4614 3.26412 82.2267 4.00012C82.0027 4.72546 81.8907 5.55746 81.8907 6.49612C81.8907 7.44546 82.0187 8.28279 82.2747 9.00812C82.5307 9.73346 82.8774 10.2935 83.3147 10.6881C83.7627 11.0721 84.2534 11.2641 84.7867 11.2641C85.3414 11.2641 85.8267 11.0615 86.2427 10.6561C86.6694 10.2401 86.9947 9.66946 87.2187 8.94412C87.4534 8.20812 87.5707 7.37079 87.5707 6.43212C87.5707 5.48279 87.4427 4.64546 87.1867 3.92012C86.9307 3.19479 86.5787 2.64012 86.1307 2.25612C85.6934 1.86146 85.208 1.66412 84.6747 1.66412ZM96.0507 1.92013C95.688 1.94146 95.4267 1.98412 95.2667 2.04812C95.1067 2.11212 94.9947 2.23479 94.9307 2.41612C94.8774 2.59746 94.8507 2.89079 94.8507 3.29612V9.82412C94.8507 10.1548 94.8774 10.4001 94.9307 10.5601C94.9947 10.7201 95.096 10.8268 95.2347 10.8801C95.3734 10.9335 95.5814 10.9601 95.8587 10.9601H96.4827C97.1867 10.9601 97.7787 10.7095 98.2587 10.2081C98.7387 9.69612 99.064 8.87479 99.2347 7.74412H99.6027C99.5707 8.09612 99.5547 8.53346 99.5547 9.05612C99.5547 9.71746 99.592 10.4748 99.6667 11.3281C98.9734 11.2961 97.8054 11.2801 96.1627 11.2801C93.9654 11.2801 92.312 11.2961 91.2027 11.3281V11.0081C91.5654 10.9868 91.8267 10.9441 91.9867 10.8801C92.1467 10.8161 92.2534 10.6935 92.3067 10.5121C92.3707 10.3308 92.4027 10.0375 92.4027 9.63212V3.29612C92.4027 2.89079 92.3707 2.59746 92.3067 2.41612C92.2534 2.23479 92.1414 2.11212 91.9707 2.04812C91.8107 1.98412 91.5547 1.94146 91.2027 1.92013V1.60012C91.7467 1.63212 92.5894 1.64812 93.7307 1.64812C94.7334 1.64812 95.5067 1.63212 96.0507 1.60012V1.92013ZM113.697 1.92013C113.313 1.94146 113.03 1.98412 112.849 2.04812C112.678 2.11212 112.561 2.23479 112.497 2.41612C112.433 2.59746 112.401 2.89079 112.401 3.29612V9.63212C112.401 10.0375 112.433 10.3308 112.497 10.5121C112.561 10.6935 112.678 10.8161 112.849 10.8801C113.03 10.9441 113.313 10.9868 113.697 11.0081V11.3281C113.121 11.2961 112.315 11.2801 111.281 11.2801C110.043 11.2801 109.137 11.2961 108.561 11.3281V11.0081C108.945 10.9868 109.222 10.9441 109.393 10.8801C109.574 10.8161 109.697 10.6935 109.761 10.5121C109.825 10.3308 109.857 10.0375 109.857 9.63212V2.60812L106.193 11.4081H105.937L102.225 2.62412V9.18412C102.225 9.65346 102.267 10.0108 102.353 10.2561C102.438 10.4908 102.593 10.6615 102.817 10.7681C103.051 10.8748 103.403 10.9548 103.873 11.0081V11.3281C103.414 11.2961 102.806 11.2801 102.049 11.2801C101.462 11.2801 100.998 11.2961 100.657 11.3281V11.0081C101.009 10.9548 101.265 10.8748 101.425 10.7681C101.595 10.6615 101.707 10.4908 101.761 10.2561C101.825 10.0215 101.857 9.66412 101.857 9.18412V3.29612C101.857 2.89079 101.825 2.59746 101.761 2.41612C101.697 2.23479 101.574 2.11212 101.393 2.04812C101.222 1.98412 100.945 1.94146 100.561 1.92013V1.60012C101.115 1.63212 101.963 1.64812 103.105 1.64812C103.659 1.64812 104.134 1.63212 104.529 1.60012L107.185 7.98412L109.857 1.64812H111.281C112.315 1.64812 113.121 1.63212 113.697 1.60012V1.92013ZM123.086 9.24812C123.086 9.85612 123.123 10.5495 123.198 11.3281C122.505 11.2961 121.337 11.2801 119.694 11.2801C117.497 11.2801 115.843 11.2961 114.734 11.3281V11.0081C115.097 10.9868 115.358 10.9441 115.518 10.8801C115.678 10.8161 115.785 10.6935 115.838 10.5121C115.902 10.3308 115.934 10.0375 115.934 9.63212V3.29612C115.934 2.89079 115.902 2.59746 115.838 2.41612C115.785 2.23479 115.673 2.11212 115.502 2.04812C115.342 1.98412 115.086 1.94146 114.734 1.92013V1.60012C115.843 1.63212 117.497 1.64812 119.694 1.64812C121.187 1.64812 122.249 1.63212 122.878 1.60012C122.803 2.31479 122.766 2.95479 122.766 3.52012C122.766 3.93612 122.782 4.26679 122.814 4.51212H122.446C122.286 3.59479 122.009 2.94412 121.614 2.56012C121.219 2.16546 120.675 1.96812 119.982 1.96812H119.39C119.113 1.96812 118.905 1.99479 118.766 2.04812C118.627 2.09079 118.526 2.18679 118.462 2.33612C118.409 2.47479 118.382 2.69879 118.382 3.00812V6.27212H119.134C119.625 6.27212 119.993 6.10146 120.238 5.76012C120.494 5.40812 120.665 5.00279 120.75 4.54412H121.118C121.086 4.90679 121.07 5.32279 121.07 5.79212V6.43212C121.07 6.91212 121.102 7.54146 121.166 8.32012H120.798C120.723 7.81879 120.553 7.40812 120.286 7.08812C120.03 6.75746 119.646 6.59212 119.134 6.59212H118.382V9.92012C118.382 10.2295 118.409 10.4588 118.462 10.6081C118.526 10.7468 118.627 10.8428 118.766 10.8961C118.905 10.9388 119.113 10.9601 119.39 10.9601H120.078C120.835 10.9601 121.427 10.7415 121.854 10.3041C122.291 9.86679 122.595 9.13079 122.766 8.09612H123.134C123.102 8.39479 123.086 8.77879 123.086 9.24812ZM128.564 1.37612C129.055 1.37612 129.471 1.42946 129.812 1.53612C130.164 1.64279 130.495 1.78679 130.804 1.96812C130.921 2.03212 131.023 2.08546 131.108 2.12812C131.204 2.17079 131.284 2.19212 131.348 2.19212C131.444 2.19212 131.519 2.13879 131.572 2.03212C131.625 1.91479 131.668 1.73346 131.7 1.48812H132.068C132.015 2.12812 131.988 3.23746 131.988 4.81612H131.62C131.503 3.85612 131.193 3.10412 130.692 2.56012C130.191 2.00546 129.535 1.72812 128.724 1.72812C128.191 1.72812 127.759 1.84546 127.428 2.08012C127.108 2.31479 126.948 2.61879 126.948 2.99212C126.948 3.28012 127.033 3.54679 127.204 3.79212C127.385 4.02679 127.62 4.24546 127.908 4.44812C128.196 4.65079 128.617 4.91746 129.172 5.24812L129.524 5.45612C130.164 5.81879 130.687 6.14946 131.092 6.44812C131.497 6.73612 131.833 7.08279 132.1 7.48812C132.367 7.88279 132.5 8.33079 132.5 8.83212C132.5 9.70679 132.137 10.3788 131.412 10.8481C130.687 11.3175 129.732 11.5521 128.548 11.5521C128.036 11.5521 127.593 11.4935 127.22 11.3761C126.847 11.2695 126.468 11.1201 126.084 10.9281C125.817 10.8001 125.631 10.7361 125.524 10.7361C125.428 10.7361 125.353 10.7948 125.3 10.9121C125.247 11.0188 125.204 11.1948 125.172 11.4401H124.804C124.847 10.8428 124.868 9.54146 124.868 7.53612H125.236C125.311 8.66679 125.615 9.55746 126.148 10.2081C126.692 10.8588 127.455 11.1841 128.436 11.1841C128.916 11.1841 129.332 11.0615 129.684 10.8161C130.036 10.5708 130.212 10.2081 130.212 9.72812C130.212 9.30146 130.047 8.93346 129.716 8.62412C129.385 8.31479 128.82 7.92546 128.02 7.45612C127.007 6.88012 126.228 6.33079 125.684 5.80812C125.151 5.28546 124.884 4.67212 124.884 3.96812C124.884 3.13612 125.225 2.49612 125.908 2.04812C126.601 1.60012 127.487 1.37612 128.564 1.37612Z" fill="#E8662A"/>
</svg>
